# xmcd
#
# Track frame offsets: 
#        150
#        39339
#        70787
#        116666
#        147976
#        197583
#        248898
#        266605
#        322521
#
# Disc length: 4626 seconds
#
# Revision: 1
# Processed by: cddbd v1.5.2PL0 Copyright (c) Steve Scherf et al.
# Submitted via: ExactAudioCopy v1.0b1
#
DISCID=77121009
DTITLE=Dream Theater - A Dramatic Turn Of Events
DYEAR=2011
DGENRE=Progressive Metal
TTITLE0=On The Backs Of Angels
TTITLE1=Build Me Up, Break Me Down
TTITLE2=Lost Not Forgotten
TTITLE3=This Is The Life
TTITLE4=Bridges In The Sky
TTITLE5=Outcry
TTITLE6=Far From Heaven
TTITLE7=Breaking All Illusions
TTITLE8=Beneath The Surface
EXTD=YEAR: 2011
EXTT0=
EXTT1=
EXTT2=
EXTT3=
EXTT4=
EXTT5=
EXTT6=
EXTT7=
EXTT8=
PLAYORDER=
